# 
# Wavefront OBJ file
# 2016 Giovanni Paolo Vigano'
# for SteamVR Unity Toolkit
# https://github.com/thestonefox/SteamVR_Unity_Toolkit
# 

mtllib lightring.mtl
# object TexturedDisk
g TexturedDisk
v 0.00000 0.00000 0.00000
v 0.30000 0.00000 0.00000
v 0.21213 -0.00000 -0.21213
v 0.00000 -0.00000 -0.30000
v -0.21213 -0.00000 -0.21213
v -0.30000 0.00000 0.00000
v -0.21213 0.00000 0.21213
v 0.00000 0.00000 0.30000
v 0.21213 0.00000 0.21213
# 9 verticies
vt 1.00000 0.50000
vt 0.85355 0.14645
vt 0.50000 0.50000
vt 0.50000 0.00000
vt 0.14645 0.14645
vt 0.00000 0.50000
vt 0.14645 0.85355
vt 0.50000 1.00000
vt 0.85355 0.85355
# 9 texture verticies
vn 0.00000 1.00000 -0.00000
# 1 normals
usemtl LightRing
f  2/1/1 3/2/1 1/3/1
f  3/2/1 4/4/1 1/3/1
f  4/4/1 5/5/1 1/3/1
f  5/5/1 6/6/1 1/3/1
f  6/6/1 7/7/1 1/3/1
f  7/7/1 8/8/1 1/3/1
f  8/8/1 9/9/1 1/3/1
f  9/9/1 2/1/1 1/3/1
